<svg id="All_in_one" data-name="All in one" xmlns="http://www.w3.org/2000/svg" xmlns:xlink="http://www.w3.org/1999/xlink" width="282" height="355" viewBox="0 0 282 355">
  <metadata><?xpacket begin="﻿" id="W5M0MpCehiHzreSzNTczkc9d"?>
<x:xmpmeta xmlns:x="adobe:ns:meta/" x:xmptk="Adobe XMP Core 5.6-c142 79.160924, 2017/07/13-01:06:39        ">
   <rdf:RDF xmlns:rdf="http://www.w3.org/1999/02/22-rdf-syntax-ns#">
      <rdf:Description rdf:about=""/>
   </rdf:RDF>
</x:xmpmeta>
                                                                                                    
                                                                                                    
                                                                                                    
                                                                                                    
                                                                                                    
                                                                                                    
                                                                                                    
                                                                                                    
                                                                                                    
                                                                                                    
                                                                                                    
                                                                                                    
                                                                                                    
                                                                                                    
                                                                                                    
                                                                                                    
                                                                                                    
                                                                                                    
                                                                                                    
                                                                                                    
                           
<?xpacket end="w"?></metadata>
<defs>
    <style>
      .cls-1 {
        filter: url(#filter);
      }

      .cls-2 {
        fill: #fff;
      }

      .cls-3, .cls-7 {
        fill: #dc932b;
      }

      .cls-15, .cls-20, .cls-3, .cls-4, .cls-5 {
        fill-rule: evenodd;
      }

      .cls-4 {
        fill: #3d04b0;
      }

      .cls-5 {
        fill: #2f2f2f;
      }

      .cls-6, .cls-7 {
        font-size: 18px;
      }

      .cls-11, .cls-6, .cls-9 {
        fill: #420025;
      }

      .cls-14, .cls-16, .cls-18, .cls-19, .cls-21, .cls-6, .cls-7, .cls-8 {
        font-family: Roboto;
      }

      .cls-19, .cls-6, .cls-7 {
        font-weight: 300;
      }

      .cls-14, .cls-19, .cls-8 {
        font-size: 24px;
      }

      .cls-15, .cls-18, .cls-8 {
        fill: #7e0e5d;
      }

      .cls-18, .cls-9 {
        font-weight: 200;
      }

      .cls-10 {
        fill: #190369;
      }

      .cls-12 {
        fill: #2b0b90;
      }

      .cls-13 {
        fill: #06149c;
      }

      .cls-14, .cls-16 {
        fill: #521f79;
      }

      .cls-16 {
        font-size: 22px;
      }

      .cls-17 {
        filter: url(#filter-3);
      }

      .cls-18 {
        font-size: 36px;
      }

      .cls-19 {
        fill: #2e1394;
      }

      .cls-21 {
        font-size: 11px;
        text-anchor: middle;
      }
    </style>
    <filter id="filter" filterUnits="userSpaceOnUse">
      <feOffset result="offset" dx="1.362" dy="2.673" in="SourceAlpha"/>
      <feGaussianBlur result="blur" stdDeviation="1.732"/>
      <feFlood result="flood" flood-opacity="0.41"/>
      <feComposite result="composite" operator="in" in2="blur"/>
      <feBlend result="blend" in="SourceGraphic"/>
    </filter>
    <filter id="filter-3" filterUnits="userSpaceOnUse">
      <feOffset result="offset" dx="0.908" dy="1.782" in="SourceAlpha"/>
      <feGaussianBlur result="blur" stdDeviation="1.414"/>
      <feFlood result="flood" flood-opacity="0.41"/>
      <feComposite result="composite" operator="in" in2="blur"/>
      <feBlend result="blend" in="SourceGraphic"/>
    </filter>
  </defs>
  <g class="cls-1">
    <rect class="cls-2" x="-1" width="283" height="355"/>
    <g class="cls-1">
      <path class="cls-3" d="M190.14,267.911l-0.28-1.822,13-2,0.28,1.822Z"/>
      <path class="cls-3" d="M201.083,265.092l1.834-.184,1,10-1.834.184Z"/>
      <path class="cls-3" d="M175.093,188.161l1.814-.322,16,90-1.814.322Z"/>
      <path class="cls-4" d="M61.173,211.905l-0.346-1.81,115-22,0.346,1.81Z"/>
      <path class="cls-4" d="M175.26,189.548l1.48-1.1,60,81-1.48,1.1Z"/>
      <path class="cls-4" d="M235.828,269.1l0.344,1.81-179,34-0.344-1.81Z"/>
      <path class="cls-4" d="M58.92,304.039l-1.841-.078,4-94,1.841,0.078Z"/>
      <path class="cls-5" d="M145.626,281.842l0.748-1.684,9,4-0.748,1.684Z"/>
      <path class="cls-5" d="M154.307,284.393l1.386,1.214-7,8-1.386-1.214Z"/>
      <path class="cls-5" d="M109.619,195.839l0.762-1.678,11,5-0.762,1.678Z"/>
      <path class="cls-5" d="M120.434,199.273l1.132,1.454-9,7-1.132-1.454Z"/>
    </g>
    <text id="a" class="cls-6" x="122.167" y="190.667">a</text>
    <text id="b" class="cls-6" x="126.167" y="310.667">b</text>
    <text id="d" class="cls-6" x="209.167" y="223.667">d</text>
    <text id="c" class="cls-6" x="45.167" y="259.667">c</text>
    <text id="h" class="cls-7" x="170.833" y="244.333">h</text>
    <g id="A_a_b_" data-name="A = ( a + b)">
      <text id="_" data-name="=" class="cls-8" x="87" y="125.333">=</text>
      <text id="_a_b_h" data-name="( a + b ) h" class="cls-8" x="135.5" y="123.75">(<tspan class="cls-9"> </tspan><tspan class="cls-10">a<tspan class="cls-11"> </tspan></tspan>+<tspan class="cls-11"> </tspan><tspan class="cls-12">b<tspan class="cls-11"> </tspan></tspan>)<tspan class="cls-11"> </tspan><tspan class="cls-13">h</tspan></text>
      <text id="A-2" data-name="A" class="cls-14" x="64" y="125">A</text>
      <path class="cls-15" d="M106,118v-1.276h21V118H106Z"/>
      <text id="_1" data-name="1" class="cls-16" x="110" y="111">1</text>
      <text id="_2" data-name="2" class="cls-16" x="110" y="141">2</text>
    </g>
    <g class="cls-17">
      <text id="Area_of_a_" data-name="Area of a " class="cls-18" transform="translate(89.748 36.086) scale(0.813 0.818)">Area of a </text>
      <text id="Trapezoid" class="cls-19" transform="translate(87.476 60.377) scale(1.118 1.125)">Trapezoid</text>
    </g>
  </g>
  <path class="cls-20" d="M194.254,349.242a5.108,5.108,0,0,1-2.031,2.041,5.513,5.513,0,0,1-5.469,0,5.133,5.133,0,0,1-2.036-2.041,5.526,5.526,0,0,1,.011-5.5,5.077,5.077,0,0,1,2.058-2.037,5.474,5.474,0,0,1,5.4,0,5.061,5.061,0,0,1,2.054,2.037A5.549,5.549,0,0,1,194.254,349.242Zm-0.8-5.042a4.24,4.24,0,0,0-1.714-1.7,4.559,4.559,0,0,0-4.5,0,4.267,4.267,0,0,0-1.715,1.7,4.59,4.59,0,0,0-.011,4.585,4.328,4.328,0,0,0,1.7,1.7,4.571,4.571,0,0,0,4.559,0,4.3,4.3,0,0,0,1.7-1.7A4.616,4.616,0,0,0,193.453,344.2Zm-3.977,4.639a2.085,2.085,0,0,0,1.909-1.469l1,0.348a3.136,3.136,0,0,1-2.9,2.177,3.376,3.376,0,0,1,0-6.73,3.042,3.042,0,0,1,2.636,1.586l-0.913.529a2,2,0,0,0-1.723-1.058A2.325,2.325,0,0,0,189.476,348.839Z"/>
  <text id="w3resource.com" class="cls-21" transform="translate(237.852 349.75)"><tspan x="0">w3resource.com</tspan></text>
</svg>
